<svg id="Layer_1" data-name="Layer 1" xmlns="http://www.w3.org/2000/svg" viewBox="0 0 39 24"><defs><style>.cls-1,.cls-5,.cls-6{fill:none;}.cls-1{stroke:#bac5cf;stroke-miterlimit:10;stroke-width:0.5px;}.cls-2{fill:#fff;}.cls-3{fill:#1b203d;}.cls-4{fill:#bac5cf;}.cls-6{stroke:#777288;stroke-width:0.1px;}</style></defs><path class="cls-1" d="M19.41,9.74a6.66,6.66,0,0,1,1.07-4.29c2-2.85,6.14-2.86,7.09-2.85.75,0,1.67.23,3.52.3A6.14,6.14,0,0,0,34,2.5a3.82,3.82,0,0,0,1.37-1A4,4,0,0,0,36,.5"/><path id="Rectangle_105" data-name="Rectangle 105" class="cls-2" d="M15.18,9.16h8.21v9.93H15.18Z"/><circle id="Ellipse_28" data-name="Ellipse 28" class="cls-2" cx="9.44" cy="14.21" r="7.79"/><circle id="Ellipse_29" data-name="Ellipse 29" class="cls-2" cx="29.3" cy="14.21" r="7.79"/><ellipse id="Ellipse_30" data-name="Ellipse 30" class="cls-3" cx="9.44" cy="14.3" rx="5.73" ry="5.82"/><ellipse id="Ellipse_31" data-name="Ellipse 31" class="cls-3" cx="29.3" cy="14.3" rx="5.73" ry="5.82"/><circle id="Ellipse_32" data-name="Ellipse 32" class="cls-4" cx="27.74" cy="12.59" r="1.25"/><circle id="Ellipse_32-2" data-name="Ellipse 32" class="cls-4" cx="30.98" cy="12.59" r="1.25"/><circle id="Ellipse_34" data-name="Ellipse 34" class="cls-4" cx="27.74" cy="16" r="1.25"/><circle id="Ellipse_34-2" data-name="Ellipse 34" class="cls-4" cx="30.98" cy="16" r="1.25"/><rect id="Rectangle_106" data-name="Rectangle 106" class="cls-4" x="8.5" y="10.88" width="2.05" height="6.67"/><rect id="Rectangle_107" data-name="Rectangle 107" class="cls-4" x="6.19" y="13.19" width="6.67" height="2.05"/><rect id="Rectangle_108" data-name="Rectangle 108" class="cls-3" x="18.43" y="14.13" width="0.86" height="0.34"/><rect id="Rectangle_109" data-name="Rectangle 109" class="cls-3" x="19.45" y="14.13" width="0.86" height="0.34"/><g id="Rectangle_110" data-name="Rectangle 110"><path class="cls-5" d="M17.74,13.43H21a.19.19,0,0,1,.18.2V15a.18.18,0,0,1-.18.19H17.74a.18.18,0,0,1-.17-.19V13.63A.19.19,0,0,1,17.74,13.43Z"/><path class="cls-6" d="M17.74,13.48H21a.14.14,0,0,1,.13.15V15a.14.14,0,0,1-.13.15H17.74a.14.14,0,0,1-.13-.15V13.63A.14.14,0,0,1,17.74,13.48Z"/></g></svg>